<svg width="40" height="26" viewBox="0 0 40 26" fill="none" xmlns="http://www.w3.org/2000/svg">
<path d="M2.52916 0.188232H37.5021C37.9528 0.197422 38.3815 0.385026 38.6937 0.710205C39.0059 1.03538 39.1762 1.4714 39.1671 1.92212V23.5964C39.1762 24.0472 39.0059 24.4827 38.6937 24.8079C38.3815 25.133 37.9528 25.3211 37.5021 25.3303H2.52916C2.07843 25.3211 1.64975 25.133 1.33751 24.8079C1.02527 24.4827 0.855007 24.0472 0.864117 23.5964V1.92212C0.855007 1.4714 1.02527 1.03538 1.33751 0.710205C1.64975 0.385026 2.07843 0.197422 2.52916 0.188232Z" fill="#5870BE"/>
<path d="M17.6191 12.755C17.6195 10.9792 18.1465 9.2435 19.1333 7.7672C20.1201 6.2909 21.5225 5.14037 23.1632 4.46105C24.8039 3.78173 26.6091 3.60419 28.3507 3.95079C30.0923 4.2974 31.6921 5.1526 32.9476 6.40831C34.2032 7.66403 35.0583 9.26385 35.4047 11.0055C35.7511 12.7471 35.5732 14.5524 34.8937 16.193C34.2142 17.8336 33.0636 19.2356 31.5872 20.2223C30.1107 21.2089 28.3749 21.7358 26.5991 21.736C25.4198 21.736 24.2519 21.5037 23.1624 21.0524C22.0728 20.601 21.0828 19.9396 20.2489 19.1056C19.415 18.2716 18.7536 17.2816 18.3024 16.192C17.8511 15.1024 17.619 13.9343 17.6191 12.755Z" fill="#FFAF38"/>
<path d="M12.8403 21.7341C11.3092 21.7339 9.80363 21.3423 8.46652 20.5964C7.12942 19.8505 6.00524 18.7751 5.20078 17.4724C4.39631 16.1697 3.93828 14.6831 3.87021 13.1535C3.80214 11.6239 4.1263 10.1021 4.81186 8.73311C5.49742 7.36409 6.52165 6.19347 7.7872 5.33174C9.05276 4.47001 10.5176 3.94595 12.0426 3.80977C13.5676 3.67358 15.1021 3.92956 16.5003 4.55342C17.8986 5.17728 19.1141 6.14833 20.0313 7.37422H18.8314V7.97432H20.4443C20.5653 8.16532 20.6794 8.36318 20.7854 8.56318H18.2313V9.16328H21.0743C21.1623 9.36328 21.2414 9.56338 21.3114 9.76338H17.6313V10.363H21.4994C21.9855 12.137 21.9185 14.0173 21.3073 15.7521H17.6313V16.3522H21.0703C20.9803 16.5592 20.8834 16.7521 20.7854 16.9431H18.2313V17.5432H20.4373C20.3043 17.7532 20.1654 17.9543 20.0244 18.1433H18.8314V18.7434H19.5313C18.6886 19.6837 17.6572 20.436 16.5044 20.9514C15.3515 21.4667 14.1031 21.7332 12.8403 21.7341Z" fill="#E63737"/>
<path d="M2.98899 14.407L3.53569 10.1471L4.3842 10.256L5.00544 13.4016C5.06238 13.6945 5.10321 13.9134 5.12793 14.0583C5.19625 13.9095 5.30101 13.6916 5.44222 13.4045L6.84255 10.5714L7.60098 10.6688L7.05428 14.9288L6.51089 14.859L6.96846 11.2935L5.27299 14.7002L4.76447 14.6349L3.99779 10.8503L3.53238 14.4768L2.98899 14.407ZM9.95959 14.9147C9.74473 15.0545 9.54287 15.1467 9.35401 15.1914C9.16708 15.2363 8.97094 15.2456 8.7656 15.2193C8.42658 15.1758 8.17659 15.06 8.01562 14.872C7.8549 14.682 7.79107 14.4582 7.82414 14.2005C7.84353 14.0494 7.89508 13.9162 7.9788 13.8009C8.0647 13.684 8.16771 13.5948 8.28783 13.5334C8.40988 13.4723 8.54314 13.4313 8.68759 13.4104C8.79374 13.3965 8.95208 13.3902 9.1626 13.3917C9.59138 13.3955 9.91001 13.3753 10.1185 13.3312C10.1296 13.2598 10.1364 13.2144 10.1389 13.195C10.1663 12.9819 10.1361 12.8254 10.0485 12.7256C9.93003 12.5902 9.73904 12.5057 9.47558 12.4719C9.22955 12.4403 9.04186 12.4605 8.9125 12.5325C8.78533 12.6028 8.6796 12.7439 8.59533 12.9555L8.09285 12.8202C8.16744 12.6072 8.26658 12.4408 8.39028 12.3208C8.51423 12.1988 8.68154 12.115 8.89222 12.0691C9.10314 12.0214 9.3413 12.0145 9.6067 12.0486C9.87016 12.0824 10.0802 12.1409 10.237 12.224C10.3937 12.3071 10.5047 12.4011 10.57 12.506C10.6355 12.6089 10.6746 12.734 10.6872 12.8814C10.6932 12.9727 10.6813 13.1346 10.6515 13.3671L10.562 14.0645C10.4996 14.5508 10.4707 14.8601 10.4753 14.9927C10.4822 15.1235 10.5109 15.2522 10.5616 15.3789L10.0153 15.3088C9.97503 15.1933 9.95644 15.062 9.95959 14.9147ZM10.0659 13.7409C9.86612 13.7941 9.57289 13.8234 9.18623 13.8289C8.96722 13.8323 8.81068 13.8476 8.71659 13.8749C8.6225 13.9023 8.5464 13.9506 8.48827 14.0199C8.43039 14.0873 8.39561 14.1665 8.38393 14.2576C8.36603 14.3971 8.40342 14.52 8.49609 14.6264C8.59071 14.7331 8.73972 14.7995 8.94313 14.8256C9.1446 14.8514 9.32939 14.8308 9.4975 14.7638C9.66585 14.6948 9.79665 14.5885 9.88991 14.445C9.96125 14.334 10.0117 14.1632 10.0413 13.9327L10.0659 13.7409ZM11.1186 14.514L11.6463 14.499C11.6488 14.7101 11.7088 14.8792 11.8264 15.0066C11.9459 15.1341 12.1247 15.2132 12.363 15.2438C12.6032 15.2746 12.7877 15.2491 12.9164 15.1671C13.0453 15.0832 13.1182 14.9754 13.1351 14.8437C13.1502 14.7255 13.1108 14.6259 13.0169 14.545C12.9512 14.4893 12.7805 14.4073 12.5049 14.2991C12.1338 14.153 11.8781 14.0355 11.7379 13.9466C11.5999 13.8561 11.5001 13.7438 11.4385 13.6099C11.3791 13.4743 11.3591 13.3309 11.3785 13.1798C11.3961 13.0423 11.4434 12.9193 11.5203 12.8111C11.5994 12.7011 11.6982 12.6143 11.8166 12.5508C11.9057 12.5012 12.0226 12.465 12.1673 12.4422C12.3142 12.4177 12.468 12.4158 12.6288 12.4364C12.8709 12.4675 13.0786 12.5296 13.2517 12.6227C13.4268 12.7161 13.5503 12.8284 13.622 12.9597C13.694 13.089 13.7337 13.2556 13.741 13.4594L13.2206 13.4635C13.2178 13.3016 13.1659 13.169 13.065 13.0654C12.966 12.9621 12.8148 12.8974 12.6114 12.8713C12.3712 12.8405 12.1946 12.8582 12.0817 12.9245C11.9689 12.9907 11.9056 13.0771 11.8919 13.1837C11.8832 13.2515 11.8967 13.3152 11.9324 13.3749C11.9678 13.4366 12.0286 13.4917 12.115 13.5402C12.1648 13.5662 12.3131 13.6306 12.5599 13.7331C12.9172 13.8794 13.1644 13.9938 13.3015 14.0764C13.4408 14.1573 13.5443 14.2631 13.6122 14.3939C13.6801 14.5247 13.7026 14.6792 13.6797 14.8575C13.6574 15.0318 13.5849 15.1899 13.4623 15.3317C13.342 15.4718 13.1804 15.5722 12.9777 15.6328C12.7752 15.6915 12.5529 15.7053 12.3107 15.6742C11.9097 15.6228 11.6143 15.5002 11.4246 15.3065C11.2367 15.113 11.1347 14.8489 11.1186 14.514ZM15.3873 15.5226L15.4036 15.9943C15.2523 16.0064 15.1186 16.005 15.0024 15.9901C14.8125 15.9658 14.6692 15.9168 14.5723 15.8434C14.4754 15.7699 14.4118 15.682 14.3816 15.5796C14.3517 15.4754 14.3568 15.2663 14.3971 14.9525L14.625 13.177L14.2414 13.1278L14.2936 12.721L14.6772 12.7702L14.7753 12.006L15.3357 11.7589L15.1973 12.8369L15.7233 12.9044L15.6711 13.3113L15.1451 13.2438L14.9135 15.0483C14.8944 15.1975 14.8908 15.2945 14.9028 15.3393C14.9167 15.3844 14.9424 15.4222 14.9798 15.4526C15.0192 15.4833 15.0776 15.5036 15.1551 15.5135C15.2132 15.521 15.2906 15.524 15.3873 15.5226ZM18.0817 15.3338L18.6136 15.47C18.4878 15.7748 18.2985 15.9996 18.0456 16.1444C17.7927 16.2891 17.487 16.3385 17.1287 16.2925C16.6773 16.2346 16.3367 16.0501 16.1068 15.739C15.8791 15.4262 15.7975 15.019 15.8619 14.5172C15.9285 13.9981 16.1139 13.6123 16.418 13.3599C16.7222 13.1075 17.0873 13.0086 17.5135 13.0633C17.9262 13.1163 18.2452 13.3 18.4707 13.6144C18.6962 13.9289 18.7762 14.3409 18.7108 14.8504C18.7069 14.8814 18.6999 14.9277 18.69 14.9895L16.3886 14.6941C16.3645 15.0356 16.427 15.3075 16.5763 15.5098C16.7256 15.7121 16.9291 15.8298 17.1867 15.8628C17.3785 15.8874 17.5487 15.8581 17.6972 15.7748C17.8458 15.6914 17.9739 15.5444 18.0817 15.3338ZM16.4728 14.2678L18.196 14.4889C18.2061 14.2263 18.1652 14.0232 18.0734 13.8795C17.9326 13.6566 17.7296 13.5282 17.4642 13.4941C17.2239 13.4633 17.0112 13.5177 16.8259 13.6574C16.6425 13.7973 16.5248 14.0007 16.4728 14.2678ZM19.1485 16.4808L19.5445 13.3948L20.0152 13.4552L19.9552 13.9231C20.1034 13.7196 20.2323 13.5894 20.342 13.5326C20.4537 13.4761 20.5705 13.4556 20.6925 13.4713C20.8688 13.4939 21.0408 13.5731 21.2085 13.7088L20.9661 14.171C20.8479 14.079 20.7249 14.0248 20.597 14.0084C20.4827 13.9937 20.3756 14.0154 20.2756 14.0735C20.1758 14.1296 20.0987 14.2162 20.0443 14.3333C19.9624 14.5118 19.9072 14.7115 19.8789 14.9323L19.6715 16.548L19.1485 16.4808ZM24.4341 15.641L24.9796 15.8557C24.802 16.3035 24.5435 16.6297 24.2042 16.8343C23.867 17.0372 23.4766 17.1101 23.033 17.0532C22.5739 16.9943 22.2119 16.8533 21.9471 16.6303C21.6845 16.4056 21.5004 16.1063 21.3948 15.7324C21.2911 15.3587 21.2654 14.9685 21.3176 14.5617C21.3745 14.118 21.5084 13.7424 21.7192 13.4347C21.9322 13.1253 22.2056 12.9054 22.5394 12.7749C22.8753 12.6428 23.2312 12.6008 23.607 12.649C24.0332 12.7037 24.3777 12.8582 24.6404 13.1125C24.9032 13.3667 25.0665 13.6978 25.1303 14.1058L24.5585 14.1653C24.4995 13.8427 24.3851 13.5986 24.2153 13.433C24.0456 13.2675 23.8183 13.1665 23.5335 13.1299C23.2061 13.0879 22.9219 13.1312 22.6809 13.2598C22.4419 13.3886 22.2608 13.58 22.1376 13.8339C22.0147 14.086 21.9352 14.3524 21.8992 14.6333C21.8527 14.9956 21.8643 15.3191 21.9341 15.6037C22.0061 15.8866 22.1449 16.1092 22.3506 16.2715C22.5562 16.4338 22.7888 16.5316 23.0484 16.5649C23.3642 16.6054 23.6432 16.5487 23.8855 16.3946C24.1277 16.2406 24.3106 15.9894 24.4341 15.641ZM27.4993 17.1656C27.2845 17.3054 27.0826 17.3977 26.8938 17.4423C26.7068 17.4873 26.5107 17.4966 26.3053 17.4702C25.9663 17.4267 25.7163 17.3109 25.5554 17.1229C25.3946 16.9329 25.3308 16.7091 25.3639 16.4515C25.3833 16.3004 25.4348 16.1672 25.5185 16.0519C25.6044 15.9349 25.7075 15.8457 25.8276 15.7844C25.9496 15.7232 26.0829 15.6822 26.2273 15.6614C26.3335 15.6474 26.4918 15.6412 26.7023 15.6426C27.1311 15.6464 27.4498 15.6263 27.6582 15.5821C27.6694 15.5107 27.6762 15.4653 27.6787 15.4459C27.706 15.2328 27.6759 15.0764 27.5883 14.9765C27.4698 14.8412 27.2788 14.7566 27.0153 14.7228C26.7693 14.6912 26.5816 14.7114 26.4522 14.7835C26.3251 14.8538 26.2193 14.9948 26.1351 15.2065L25.6326 15.0711C25.7072 14.8582 25.8063 14.6917 25.93 14.5717C26.054 14.4498 26.2213 14.3659 26.432 14.3201C26.6429 14.2723 26.881 14.2655 27.1464 14.2995C27.4099 14.3333 27.62 14.3918 27.7767 14.4749C27.9334 14.5581 28.0444 14.652 28.1097 14.7569C28.1753 14.8598 28.2144 14.985 28.227 15.1323C28.233 15.2237 28.221 15.3856 28.1912 15.618L28.1017 16.3154C28.0393 16.8017 28.0104 17.1111 28.0151 17.2436C28.0219 17.3745 28.0507 17.5032 28.1014 17.6298L27.5551 17.5597C27.5148 17.4443 27.4962 17.3129 27.4993 17.1656ZM27.6057 15.9919C27.4059 16.045 27.1126 16.0743 26.726 16.0798C26.507 16.0832 26.3504 16.0986 26.2563 16.1259C26.1623 16.1532 26.0861 16.2015 26.028 16.2709C25.9701 16.3383 25.9354 16.4175 25.9237 16.5085C25.9058 16.648 25.9432 16.771 26.0358 16.8774C26.1305 16.984 26.2795 17.0504 26.4829 17.0765C26.6844 17.1024 26.8691 17.0818 27.0372 17.0147C27.2056 16.9458 27.3364 16.8395 27.4297 16.6959C27.501 16.5849 27.5515 16.4142 27.581 16.1836L27.6057 15.9919ZM28.7436 17.7122L29.1396 14.6262L29.6104 14.6866L29.5503 15.1545C29.6985 14.951 29.8275 14.8208 29.9372 14.764C30.0488 14.7074 30.1656 14.687 30.2877 14.7027C30.464 14.7253 30.6359 14.8045 30.8036 14.9402L30.5612 15.4023C30.443 15.3104 30.32 15.2562 30.1922 15.2398C30.0779 15.2251 29.9707 15.2468 29.8707 15.3049C29.771 15.361 29.6939 15.4476 29.6395 15.5647C29.5575 15.7432 29.5023 15.9429 29.474 16.1637L29.2666 17.7794L28.7436 17.7122ZM32.7333 18.2242L32.7833 17.8349C32.5484 18.1158 32.241 18.232 31.8613 18.1832C31.6153 18.1517 31.3974 18.0548 31.2075 17.8926C31.0195 17.7306 30.8839 17.5212 30.8007 17.2644C30.7197 17.0059 30.6994 16.7187 30.74 16.403C30.7795 16.0949 30.8666 15.8226 31.0014 15.5858C31.1364 15.3472 31.3151 15.1742 31.5376 15.0669C31.7601 14.9596 31.9983 14.9222 32.252 14.9547C32.438 14.9786 32.5985 15.0396 32.7336 15.1377C32.869 15.2338 32.9741 15.3507 33.049 15.4883L33.2452 13.9598L33.7653 14.0265L33.2186 18.2865L32.7333 18.2242ZM31.2775 16.472C31.2268 16.8671 31.2722 17.1733 31.4137 17.3903C31.5552 17.6073 31.7393 17.7304 31.9659 17.7595C32.1945 17.7888 32.4002 17.7207 32.5829 17.5551C32.7678 17.3878 32.8849 17.1124 32.9341 16.7288C32.9883 16.3065 32.9467 15.9861 32.8093 15.7676C32.672 15.5492 32.4841 15.4246 32.2459 15.3941C32.0134 15.3642 31.8065 15.4342 31.6252 15.6039C31.4459 15.7738 31.33 16.0632 31.2775 16.472Z" fill="white"/>
</svg>
