<svg width="39" height="26" viewBox="0 0 39 26" fill="none" xmlns="http://www.w3.org/2000/svg">
<path d="M1.71204 0.349365H36.447C36.8958 0.36142 37.3216 0.550379 37.6315 0.875244C37.9414 1.20011 38.1101 1.63439 38.101 2.08325V23.7561C38.1101 24.205 37.9414 24.6392 37.6315 24.9641C37.3216 25.289 36.8958 25.4779 36.447 25.49H1.71204C1.26325 25.4779 0.83735 25.289 0.527473 24.9641C0.217596 24.6392 0.0488495 24.205 0.0579905 23.7561V2.08423C0.0485819 1.63519 0.217323 1.20081 0.527229 0.875732C0.837135 0.55065 1.26307 0.36142 1.71204 0.349365Z" fill="#F1F1F1"/>
<path d="M0.469856 24.8992C0.204239 24.5784 0.0595743 24.1745 0.0609205 23.7581V2.08423C0.0515118 1.63519 0.220131 1.20081 0.530037 0.875732C0.839942 0.55065 1.26588 0.36142 1.71485 0.349365H36.4489C36.8705 0.350311 37.2749 0.516826 37.5748 0.813232L0.474861 24.8992H0.469856Z" fill="white" fill-opacity="0.73"/>
<path d="M14.7058 18.3143L16.0057 15.9642L15.2817 10.3201H17.0527L17.3387 13.6605L19.0718 10.3201H20.8998L16.6908 18.3143H14.7058ZM9.15271 14.0985C9.42571 12.7245 10.7527 12.2884 12.7147 12.2884C12.8317 11.6774 12.4428 11.5242 11.7808 11.5472C11.1971 11.5755 10.6233 11.7086 10.0868 11.9403L10.2417 10.5672C10.8859 10.3671 11.553 10.2497 12.2268 10.2181C13.4528 10.1961 14.8158 10.5875 14.5048 12.1805L13.7457 15.9305H11.9747L12.0907 15.3621C11.8851 15.5743 11.6394 15.7436 11.3678 15.8597C11.0962 15.9758 10.8042 16.0365 10.5088 16.0384C9.66979 16.0344 8.92281 15.4881 9.15381 14.0941L9.15271 14.0985ZM10.9637 14.0111C10.908 14.09 10.8763 14.1835 10.8726 14.2801C10.8688 14.3767 10.8931 14.4724 10.9425 14.5555C10.9919 14.6385 11.0642 14.7056 11.1509 14.7484C11.2375 14.7911 11.3348 14.8075 11.4308 14.7962C11.6499 14.806 11.8651 14.7363 12.0369 14.5999C12.2087 14.4636 12.3254 14.2701 12.3657 14.0545C12.3889 13.886 12.4223 13.719 12.4657 13.5545H12.0177C11.8182 13.536 11.6172 13.5677 11.4331 13.6468C11.249 13.7259 11.0876 13.8496 10.9637 14.0072V14.0111ZM3.05273 15.9305L4.51672 8.75813H7.82373C8.11853 8.75552 8.40968 8.82374 8.67273 8.95686C8.93578 9.08998 9.16309 9.28418 9.33557 9.52327C9.50806 9.76235 9.6207 10.0393 9.66406 10.3309C9.70742 10.6225 9.68017 10.9201 9.58472 11.199C9.48953 11.8549 9.16078 12.4543 8.65881 12.887C8.15685 13.3197 7.5155 13.557 6.85278 13.5545H5.46973L4.99475 15.9305H3.05273ZM5.74573 12.1805H6.65576C6.92196 12.1593 7.17401 12.0518 7.37402 11.8748C7.57404 11.6979 7.71121 11.4607 7.76477 11.199C7.80674 11.0914 7.82215 10.9755 7.80969 10.8607C7.79724 10.7458 7.75731 10.6355 7.69324 10.5394C7.62917 10.4432 7.54287 10.3641 7.44165 10.3084C7.34043 10.2527 7.2272 10.2218 7.11169 10.2191H6.16174L5.74573 12.1805Z" fill="#3284AE"/>
<path d="M26.37 14.094C26.646 12.72 27.987 12.2854 29.976 12.2854C30.114 11.6734 29.72 11.5222 29.05 11.5442C28.4539 11.5748 27.8674 11.7075 27.316 11.9363L27.474 10.5632C28.1338 10.3656 28.8151 10.2486 29.5031 10.2151C30.7441 10.1931 32.103 10.584 31.788 12.176L31.02 15.925H29.2469L29.365 15.3591C28.9354 15.7883 28.3541 16.0314 27.7469 16.0354C26.8889 16.0344 26.133 15.489 26.37 14.094ZM28.203 14.0071C28.1491 14.0887 28.1198 14.1842 28.1187 14.282C28.1175 14.3798 28.1447 14.4755 28.1967 14.5583C28.2487 14.6412 28.3233 14.7073 28.4119 14.7488C28.5004 14.7902 28.5992 14.8054 28.696 14.7922C28.9138 14.802 29.1277 14.732 29.298 14.5959C29.4683 14.4598 29.5834 14.2666 29.6219 14.052C29.6609 13.877 29.681 13.724 29.722 13.552H29.2889C29.084 13.5313 28.8771 13.5621 28.687 13.6414C28.4969 13.7206 28.3295 13.8459 28.2 14.0061L28.203 14.0071ZM31.839 15.925L33.3051 8.7312H35.125L33.64 15.925H31.839ZM20.27 15.925L21.7321 8.75415H25.032C25.3259 8.75336 25.6159 8.82264 25.8777 8.9563C26.1395 9.08996 26.3657 9.28415 26.5375 9.52271C26.7093 9.76126 26.8216 10.0372 26.8654 10.3279C26.9091 10.6186 26.8829 10.9156 26.7889 11.1941C26.6937 11.8523 26.363 12.4535 25.8583 12.8865C25.3535 13.3195 24.7089 13.555 24.0439 13.5491H22.681L22.187 15.9241L20.27 15.925ZM22.957 12.176H23.845C24.1133 12.1554 24.3679 12.049 24.5709 11.8723C24.7739 11.6956 24.9146 11.458 24.972 11.1951C25.0118 11.086 25.025 10.969 25.0105 10.8538C24.996 10.7385 24.9542 10.6283 24.8885 10.5325C24.8229 10.4366 24.7354 10.3582 24.6332 10.303C24.531 10.2478 24.4171 10.2174 24.301 10.2151H23.353L22.957 12.176Z" fill="#3CA9C7"/>
</svg>
