<svg width="39" height="26" viewBox="0 0 39 26" fill="none" xmlns="http://www.w3.org/2000/svg">
<path d="M1.765 0.188232H36.765C36.9883 0.192523 37.2086 0.240837 37.4133 0.330322C37.618 0.419807 37.8031 0.548678 37.9579 0.709717C38.1127 0.870756 38.2342 1.06075 38.3155 1.2688C38.3969 1.47685 38.4365 1.69878 38.432 1.92212V23.5964C38.4365 23.8198 38.3969 24.0417 38.3155 24.2498C38.2342 24.4578 38.1127 24.6478 37.9579 24.8088C37.8031 24.9699 37.618 25.0987 37.4133 25.1882C37.2086 25.2777 36.9883 25.326 36.765 25.3303H1.765C1.54165 25.326 1.32136 25.2777 1.11668 25.1882C0.911999 25.0987 0.726941 24.9699 0.572124 24.8088C0.417308 24.6478 0.29569 24.4578 0.214336 24.2498C0.132982 24.0417 0.0934942 23.8198 0.0980031 23.5964V1.92212C0.0934942 1.69878 0.132982 1.47685 0.214336 1.2688C0.29569 1.06075 0.417308 0.870756 0.572124 0.709717C0.726941 0.548678 0.911999 0.419807 1.11668 0.330322C1.32136 0.240837 1.54165 0.192523 1.765 0.188232Z" fill="url(#paint0_linear_3276_7)"/>
<defs>
<linearGradient id="paint0_linear_3276_7" x1="19.265" y1="25.3303" x2="19.265" y2="0.188232" gradientUnits="userSpaceOnUse">
<stop stop-color="#E59703"/>
<stop offset="0.231" stop-color="#E59703"/>
<stop offset="0.234" stop-color="white"/>
<stop offset="0.761" stop-color="white"/>
<stop offset="0.766" stop-color="#5457BB"/>
<stop offset="1" stop-color="#5457BB"/>
</linearGradient>
</defs>
</svg>
