<svg width="40" height="26" viewBox="0 0 40 26" fill="none" xmlns="http://www.w3.org/2000/svg">
<path d="M2.66197 0.385986H37.644C37.8673 0.390407 38.0874 0.439022 38.292 0.528564C38.4965 0.618107 38.6814 0.746933 38.8362 0.907959C38.9909 1.06898 39.1124 1.25906 39.1937 1.46704C39.275 1.67502 39.3144 1.8971 39.3099 2.12036V23.7961C39.3188 24.2469 39.1482 24.6826 38.8358 25.0076C38.5234 25.3326 38.0947 25.5201 37.644 25.5291H2.66197C2.21125 25.5201 1.7825 25.3326 1.47007 25.0076C1.15765 24.6826 0.987113 24.2469 0.995952 23.7961V2.12036C0.991442 1.8971 1.03099 1.67502 1.11228 1.46704C1.19358 1.25906 1.315 1.06898 1.46971 0.907959C1.62442 0.746933 1.80933 0.618107 2.0139 0.528564C2.21846 0.439022 2.43871 0.390407 2.66197 0.385986Z" fill="#353A40"/>
<path d="M23.6852 16.9503C23.4208 16.8159 23.2034 16.6042 23.0613 16.3439C22.8908 16.0252 22.808 15.6674 22.8213 15.3063C22.8066 15.0601 22.8409 14.8135 22.9222 14.5807C23.0036 14.3479 23.1305 14.1337 23.2953 13.9503C23.4705 13.7834 23.6781 13.6542 23.9054 13.5709C24.1326 13.4877 24.3746 13.4517 24.6162 13.466C24.8596 13.4503 25.1038 13.4845 25.3335 13.5665C25.5632 13.6486 25.7738 13.7767 25.9523 13.943C26.1156 14.123 26.2411 14.3338 26.3217 14.5631C26.4022 14.7924 26.4361 15.0354 26.4213 15.278C26.4361 15.6296 26.3675 15.9798 26.2212 16.2999C26.089 16.5605 25.8832 16.7765 25.6293 16.921C25.3319 17.0783 24.9984 17.155 24.6622 17.1432C24.326 17.1553 23.9915 17.0894 23.6852 16.9503ZM24.0912 14.5333C23.9623 14.7717 23.8948 15.0382 23.8948 15.3092C23.8948 15.5802 23.9623 15.8468 24.0912 16.0851C24.1592 16.1589 24.2418 16.2176 24.3337 16.2579C24.4257 16.2982 24.5249 16.3195 24.6252 16.3195C24.7256 16.3195 24.8248 16.2982 24.9167 16.2579C25.0087 16.2176 25.0912 16.1589 25.1592 16.0851C25.3108 15.8378 25.3775 15.5476 25.3492 15.2589C25.3708 14.9984 25.3 14.7387 25.1493 14.525C25.0832 14.4485 25.0005 14.3883 24.9077 14.3483C24.8149 14.3083 24.7143 14.2896 24.6133 14.2941C24.5138 14.2913 24.415 14.3112 24.3245 14.3527C24.234 14.3941 24.1541 14.4562 24.0912 14.5333ZM14.1792 17.1071C14.0049 17.0899 13.8353 17.0404 13.6792 16.9611C13.5376 16.8838 13.4127 16.7794 13.3113 16.6539C13.2075 16.5349 13.1295 16.396 13.0823 16.2452C13.0209 16.0509 12.9873 15.8489 12.9823 15.6451V13.527H14.0532V15.695C14.0484 15.7774 14.06 15.8602 14.0873 15.9381C14.1146 16.016 14.1571 16.0876 14.2123 16.1491C14.3336 16.2533 14.4882 16.3107 14.6482 16.3107C14.8082 16.3107 14.9629 16.2533 15.0842 16.1491C15.1394 16.087 15.1817 16.0146 15.2089 15.9362C15.236 15.8577 15.2472 15.7749 15.2422 15.692V13.5241H16.3132V15.6422C16.3138 15.8464 16.28 16.0493 16.2133 16.2423C16.1516 16.4259 16.049 16.5929 15.9132 16.7311C15.7935 16.8617 15.6464 16.9639 15.4823 17.0309C15.2411 17.1149 14.9866 17.155 14.7312 17.1491C14.5469 17.1454 14.363 17.1311 14.1803 17.1061L14.1792 17.1071ZM29.3182 17.0831L28.0182 15.131V17.0831H27.0082V13.528H28.0082L29.3173 15.4943V13.528H30.3292V17.0831H29.3182ZM19.3402 17.0831L18.0403 15.131V17.0831H17.0303V13.528H18.0303L19.3383 15.4943V13.528H20.3502V17.0831H19.3402ZM21.1102 17.0739V13.525H22.1902V17.0739H21.1102ZM12.9053 12.0929C12.6737 11.853 12.5363 11.5381 12.5182 11.2052L13.5403 11.1403C13.551 11.2789 13.597 11.4122 13.6742 11.528C13.7299 11.5996 13.8021 11.6567 13.8846 11.6945C13.9672 11.7322 14.0576 11.7499 14.1482 11.7452C14.2762 11.7538 14.4029 11.7139 14.5033 11.6339C14.5409 11.6042 14.5713 11.5666 14.5924 11.5236C14.6135 11.4806 14.6248 11.4333 14.6254 11.3854C14.6259 11.3375 14.6158 11.2902 14.5957 11.2467C14.5756 11.2032 14.5461 11.1646 14.5093 11.1339C14.343 11.0262 14.1553 10.9558 13.9592 10.9279C13.5938 10.8667 13.2485 10.7189 12.9523 10.4962C12.8546 10.4112 12.777 10.3053 12.7251 10.1867C12.6732 10.068 12.6484 9.93961 12.6522 9.81019C12.6527 9.62648 12.7066 9.44677 12.8073 9.2931C12.9212 9.12168 13.0839 8.98847 13.2743 8.91029C13.5468 8.80593 13.8378 8.75846 14.1293 8.77113C14.4862 8.74732 14.8415 8.83607 15.1453 9.02503C15.2678 9.12197 15.3682 9.24414 15.4399 9.38294C15.5117 9.52175 15.5531 9.67418 15.5613 9.83021L14.5492 9.89124C14.536 9.75836 14.4757 9.63447 14.3793 9.54212C14.2772 9.46419 14.1504 9.42562 14.0222 9.43324C13.9216 9.4259 13.8216 9.45467 13.7402 9.51429C13.7103 9.53824 13.6861 9.56851 13.6697 9.60316C13.6532 9.63781 13.6449 9.67564 13.6453 9.714C13.6461 9.74394 13.6536 9.77328 13.6672 9.79994C13.6809 9.82659 13.7004 9.85018 13.7242 9.86829C13.8335 9.93783 13.9567 9.98212 14.0852 9.99818C14.4328 10.0625 14.7715 10.1679 15.0942 10.3121C15.2762 10.3994 15.4298 10.5363 15.5372 10.7072C15.6301 10.8664 15.6779 11.0478 15.6753 11.2321C15.6765 11.4559 15.6122 11.6752 15.4902 11.8629C15.3648 12.0567 15.185 12.2091 14.9733 12.3009C14.7079 12.408 14.4232 12.4591 14.1372 12.4503C13.6955 12.4965 13.2534 12.3676 12.9053 12.0919V12.0929ZM29.3192 12.3829L28.0193 10.4303V12.3829H27.0093V8.82826H28.0093L29.3182 10.7951V8.82826H30.3302V12.3829H29.3192ZM25.4442 12.3829L24.8702 11.296C24.824 11.193 24.7578 11.1002 24.6753 11.0231C24.5984 10.9681 24.5058 10.939 24.4113 10.9401H24.3163V12.3829H23.2372V8.82826H25.0262C25.2829 8.81818 25.5395 8.84744 25.7872 8.91517C25.9612 8.972 26.1109 9.08555 26.2123 9.23792C26.3235 9.409 26.3796 9.61017 26.3733 9.8141C26.3778 9.99226 26.3353 10.1687 26.2502 10.3253C26.1678 10.4677 26.0509 10.5867 25.9103 10.672C25.7928 10.7388 25.6655 10.7868 25.5332 10.8141C25.6324 10.8434 25.7268 10.8871 25.8132 10.944C25.8775 10.9996 25.9349 11.0627 25.9843 11.132C26.0413 11.2004 26.0919 11.2743 26.1353 11.3522L26.6553 12.3829H25.4442ZM24.3173 10.2672H24.7703C24.8662 10.2603 24.9613 10.2439 25.0542 10.2189C25.1239 10.2046 25.1859 10.1652 25.2283 10.108C25.2734 10.0485 25.2973 9.97566 25.2963 9.90101C25.2994 9.85165 25.2913 9.80234 25.2728 9.75648C25.2543 9.71062 25.2257 9.66924 25.1892 9.63587C25.0695 9.56233 24.9289 9.53052 24.7892 9.54505H24.3173V10.2672ZM19.7173 12.3829V8.82826H22.5952V9.58704H20.7953V10.152H22.4673V10.8781H20.7953V11.5783H22.6503V12.3829H19.7173ZM17.0652 12.3829V9.70619H15.9702V8.82826H19.2352V9.70619H18.1353V12.3829H17.0652ZM9.2002 12.3829V8.82826H12.0782V9.58704H10.2782V10.152H11.9492V10.8781H10.2703V11.5783H12.1233V12.3829H9.2002ZM7.0332 12.3829L6.42419 10.1442L5.81726 12.3829H4.76428L3.99121 8.82826H5.01123L5.3783 10.818L5.91626 8.82826H6.93225L7.47119 10.816L7.83826 8.82826H8.85327L8.08728 12.3829H7.0332Z" fill="#ECD345"/>
<path d="M35.1199 17.1453V8.76538H36.3198V17.1453H35.1199ZM32.1299 17.1453V8.76538H33.3298V17.1453H32.1299Z" fill="#ECD345"/>
</svg>
